<svg xmlns="http://www.w3.org/2000/svg" width="210" height="42" fill="none"><g clip-path="url(#a)"><path fill="#fff" d="M43.788 11.643c-1.776 0-3.216 1.422-3.216 3.175v13.447h3.216V14.818h7.66v-3.175h-7.66ZM70.707 19.956v-5.135c0-1.752-1.441-3.175-3.217-3.175H57.082c-1.776 0-3.217 1.423-3.217 3.175v10.273c0 1.752 1.44 3.174 3.216 3.174H67.49c1.776 0 3.217-1.422 3.217-3.174v-5.138Zm-3.217 0v5.135H57.082V14.818H67.49v5.138ZM77.14 11.643c-1.776 0-3.217 1.422-3.217 3.175V25.09c0 1.753 1.441 3.175 3.217 3.175l11.347-.159V25.09H77.14V14.818h11.347v-3.022l-11.347-.153ZM106.937 11.643h-4.354l-6.377 6.725H94.92v-6.725h-3.217v16.623h3.217v-6.723h1.859l6.625 6.719h4.437l-8.502-8.67 7.598-7.949ZM111.761 25.09v-3.547l13.625-.153v-6.569c0-1.752-1.44-3.175-3.216-3.175h-10.409c-1.775 0-3.216 1.423-3.216 3.175v10.273c0 1.752 1.441 3.174 3.216 3.174l13.625-.159v-3.015h-13.625v-.003Zm0-10.272h10.409v3.55h-10.409v-3.55ZM133.474 6.793h-1.227l-1.989 2.428v2.425H127.8v3.175l2.458-.034v10.307c0 1.752 1.44 3.174 3.216 3.174l5.203-.155V25.09h-5.203V14.74l5.674-.076v-3.018h-5.674V6.792ZM156.123 21.543c0-1.752-1.441-3.174-3.217-3.174h-8.131V14.82h11.348v-3.022l-11.348-.152c-1.776 0-3.216 1.422-3.216 3.174v3.548c0 1.752 1.44 3.174 3.216 3.174h8.131v3.548h-11.347v3.018l11.347.156c1.776 0 3.217-1.422 3.217-3.174v-3.548ZM172.964 11.643h-10.408c-1.776 0-3.217 1.422-3.217 3.175V25.09c0 1.753 1.441 3.175 3.217 3.175l13.625-.159V25.09h-13.625v-3.55l13.625-.153v-6.57c0-1.752-1.441-3.174-3.217-3.174Zm0 6.725h-10.408v-3.55h10.408v3.55ZM193.022 11.643l-13.625.16v3.015h13.625v3.547l-13.625.153v6.57c0 1.752 1.441 3.174 3.217 3.174h10.408c1.776 0 3.217-1.422 3.217-3.175v-10.27c0-1.752-1.441-3.174-3.217-3.174Zm0 13.447h-10.408v-3.547h10.408v3.547ZM204.326 14.742l5.674-.077v-3.018h-5.674V6.792h-1.227l-1.989 2.428v2.425h-2.457v3.175l2.457-.034v10.307c0 1.752 1.441 3.174 3.216 3.174l5.203-.155V25.09h-5.203V14.74Z"/><path fill="#8257E5" d="M32.06.768 26.824.006a.52.52 0 0 0-.371.086l-2.235 2.866a.73.73 0 0 0-.136.636.29.29 0 0 1-.347.355l-1.838-.401a.78.78 0 0 0-.777.278l-7.236 9.212a.488.488 0 0 1-.582.144l-2.752-1.236a.769.769 0 0 0-.744.067l-1.385.951a.764.764 0 0 1-.778.053l-.694-.35a.757.757 0 0 0-1.078.5l-.502 2.17a1.214 1.214 0 0 0 .555 1.31l1.044.633 3.387 2.058 1.655 1.003a1.23 1.23 0 0 0 1.447-.122l2.757-2.392a.738.738 0 0 1 .816-.1l.83.415c.282.14.623.095.852-.119l1.4-1.29a.751.751 0 0 1 .822-.132l2.082.936c.316.14.691.052.902-.22l.96-1.22 7.28-9.219a.743.743 0 0 0-.434-1.186L30.1 5.337a.46.46 0 0 1-.264-.74l2.52-3.077a.462.462 0 0 0-.298-.75V.769ZM8.044 19.305c-.145-.092-.325.052-.263.21l.784 2.031c.056.144.065.3.025.447l-.682 2.64a.444.444 0 0 0 .161.461l1.95 1.495a.476.476 0 0 0 .594-.015l2.052-1.768a.759.759 0 0 1 .418-.18l2.311-.257a.175.175 0 0 0 .078-.32l-7.428-4.741v-.003ZM7.344 26.088a.441.441 0 0 0-.468-.052l-1.642.786a.42.42 0 0 0-.205.22l-3.501 8.53a.077.077 0 0 0 0 .064c.015.046.065.07.108.052l.793-.3c.025-.009.056-.012.078.003.04.025.053.08.028.12L.012 39.575c-.052.086.062.177.137.104l9.067-8.991a.455.455 0 0 0 .145-.297l.174-2.315a.426.426 0 0 0-.161-.364l-2.03-1.621v-.003Z"/><path fill="#fff" d="M95.425 40.367a2.052 2.052 0 0 1-.087-.563c-.158.205-.362.361-.607.471-.245.11-.505.165-.781.165-.394 0-.713-.107-.954-.324a1.048 1.048 0 0 1-.366-.823c0-.394.167-.703.499-.932.331-.23.793-.343 1.385-.343h.821v-.459c0-.287-.09-.517-.27-.682-.18-.165-.443-.247-.79-.247-.316 0-.576.08-.784.238-.207.16-.31.352-.31.575h-.452c0-.324.152-.602.453-.838.303-.235.675-.352 1.115-.352.44 0 .815.114 1.081.337.264.226.4.538.406.942v1.911c0 .392.04.682.124.878v.046h-.483Zm-1.422-.321c.303 0 .573-.074.811-.217.24-.144.413-.337.521-.578v-.887h-.809c-.452.006-.805.085-1.06.244-.254.16-.38.377-.38.652 0 .226.083.413.254.563.17.15.39.223.663.223ZM177.621 40.067c.317 0 .58-.089.794-.263a.925.925 0 0 0 .347-.682h.434c-.013.248-.09.471-.236.673-.142.202-.335.36-.573.477a1.765 1.765 0 0 1-.766.171c-.536 0-.963-.183-1.276-.553-.313-.367-.471-.863-.471-1.487v-.134c0-.398.071-.75.21-1.055.143-.306.344-.542.608-.71a1.71 1.71 0 0 1 .926-.25c.45 0 .818.13 1.11.394.291.263.446.612.468 1.043h-.434a1.088 1.088 0 0 0-.347-.765 1.139 1.139 0 0 0-.797-.29c-.409 0-.725.146-.951.437-.226.29-.338.7-.338 1.223v.132c0 .514.112.917.338 1.205.226.287.545.434.954.434ZM179.846 38.287c0-.388.078-.737.23-1.049.152-.312.368-.553.647-.725.279-.174.595-.26.949-.26.545 0 .985.19 1.323.566.337.376.508.878.508 1.499v.092c0 .391-.078.743-.229 1.055a1.694 1.694 0 0 1-.645.721 1.793 1.793 0 0 1-.948.254c-.542 0-.982-.19-1.323-.566-.338-.376-.508-.877-.508-1.498v-.089h-.004Zm.453.123c0 .483.127.88.381 1.19.254.308.586.464.998.464.412 0 .74-.156.991-.465.254-.309.381-.718.381-1.226v-.086c0-.309-.058-.59-.173-.847a1.39 1.39 0 0 0-.49-.596 1.26 1.26 0 0 0-.719-.211c-.402 0-.731.156-.988.468-.254.312-.381.721-.381 1.226v.083ZM184.848 36.33l.015.657a1.488 1.488 0 0 1 1.323-.73c.645 0 1.057.26 1.231.782.145-.25.34-.443.585-.58.245-.135.515-.206.809-.206.877 0 1.326.474 1.342 1.42v2.694h-.453v-2.66c0-.362-.08-.63-.235-.802-.155-.175-.409-.26-.759-.26-.326.006-.602.11-.825.312a1.1 1.1 0 0 0-.375.74v2.673h-.452v-2.694c0-.346-.084-.606-.248-.774-.161-.172-.412-.257-.75-.257-.285 0-.53.08-.734.241-.205.163-.357.398-.453.716v2.771h-.452v-4.04h.434l-.003-.003ZM194.593 38.388c0 .63-.142 1.129-.424 1.499-.282.37-.66.553-1.134.553-.561 0-.989-.192-1.286-.58v2.06h-.45v-5.593h.419l.021.572c.295-.431.722-.646 1.283-.646.49 0 .874.184 1.153.548.279.367.418.874.418 1.523v.064Zm-.452-.08c0-.513-.109-.92-.322-1.22-.214-.3-.515-.446-.896-.446-.279 0-.514.067-.716.199a1.25 1.25 0 0 0-.458.575v1.939c.108.232.263.406.464.529.202.122.44.183.716.183.381 0 .679-.15.893-.45.213-.3.319-.733.319-1.305v-.003ZM198.178 40.367a2.057 2.057 0 0 1-.086-.563c-.158.205-.363.361-.608.471-.245.11-.505.165-.781.165-.393 0-.712-.107-.954-.324a1.048 1.048 0 0 1-.366-.823c0-.394.168-.703.499-.932.332-.23.793-.343 1.385-.343h.821v-.459c0-.287-.089-.517-.269-.682-.18-.165-.443-.247-.787-.247-.316 0-.577.08-.784.238-.208.16-.31.352-.31.575h-.452c0-.324.151-.602.452-.838.304-.235.675-.352 1.115-.352.441 0 .815.114 1.082.337.263.226.4.538.406.942v1.911c0 .392.04.682.124.878v.046h-.487Zm-1.422-.321c.304 0 .573-.074.812-.217.238-.144.412-.337.52-.578v-.887h-.808c-.453.006-.806.085-1.06.244-.254.16-.381.377-.381.652 0 .226.083.413.254.563.17.15.39.223.663.223ZM200.177 36.33l.016.69c.155-.247.347-.436.576-.568.229-.131.483-.196.759-.196.44 0 .766.123.979.367.214.245.323.609.326 1.098v2.652h-.45v-2.655c0-.36-.08-.63-.232-.807-.152-.178-.397-.266-.731-.266-.279 0-.527.085-.744.26a1.505 1.505 0 0 0-.477.7v2.765h-.449v-4.04h.43-.003ZM205.296 39.725l1.196-3.398h.487l-1.748 4.725-.09.208c-.223.49-.57.734-1.041.734-.109 0-.223-.018-.347-.052v-.37l.229.021c.223 0 .403-.055.539-.162.137-.107.254-.293.351-.56l.201-.544-1.543-4.006h.496l1.27 3.398v.006ZM107.978 40.584v-5.248h.474v5.248h-.474ZM113.218 40.676c-.883 0-1.546-.224-1.989-.673-.444-.45-.664-1.129-.664-2.043 0-.59.103-1.089.304-1.492.202-.404.502-.707.902-.915.4-.208.895-.309 1.484-.309.372 0 .704.04.995.12.291.079.539.195.743.351.205.156.36.352.468.584.109.236.165.511.165.826h-.543c0-.266-.046-.49-.139-.67a1.15 1.15 0 0 0-.384-.437 1.673 1.673 0 0 0-.583-.239 3.426 3.426 0 0 0-.725-.073c-.325 0-.62.04-.88.12-.26.079-.483.207-.669.382-.186.177-.329.4-.428.675a2.943 2.943 0 0 0-.149.994v.162c0 .52.084.94.248 1.257.164.319.403.55.71.692.307.143.672.214 1.097.214.465 0 .836-.061 1.112-.187.276-.125.477-.318.601-.578.124-.26.186-.59.186-.988v-.131h-2.008v-.459h2.551v2.716h-.434l-.072-.719a1.448 1.448 0 0 1-.492.471c-.205.12-.428.208-.67.26-.241.055-.489.08-.743.08l.006.009ZM118.179 40.584v-5.248h.629v5.248h-.629ZM122.678 40.584v-4.636h-1.837v-.612h4.394v.612h-1.844v4.636h-.713ZM126.22 40.584l2.092-5.248h1.038l2.101 5.248h-.868l-.496-1.254h-2.556l-.49 1.254h-.821Zm1.574-1.927h2.03l-.62-1.6a2.25 2.25 0 0 1-.074-.186c-.028-.08-.062-.168-.096-.269-.037-.1-.071-.199-.106-.303l-.096-.284h-.046c-.037.1-.078.22-.124.352-.046.131-.093.26-.136.385a7.13 7.13 0 0 1-.112.303l-.62 1.6v.002ZM133.304 40.584v-5.248h.892v4.483h2.659v.765h-3.551ZM138.779 40.584v-5.248h.992v2.14h2.504v-2.14h.991v5.248h-.991v-2.263h-2.504v2.263h-.992ZM147.995 40.676c-.558 0-1.041-.098-1.447-.294a2.051 2.051 0 0 1-.933-.902c-.217-.407-.325-.911-.325-1.52s.108-1.126.325-1.526c.217-.4.53-.697.933-.896.406-.196.886-.294 1.447-.294s1.053.098 1.456.294c.403.196.713.495.93.896.217.4.325.908.325 1.526s-.108 1.113-.325 1.52a2.044 2.044 0 0 1-.93.902c-.403.196-.889.294-1.456.294Zm0-.896c.257 0 .486-.037.681-.11a1.25 1.25 0 0 0 .496-.33c.133-.148.236-.325.307-.536.071-.211.105-.459.105-.737v-.208c0-.281-.034-.53-.105-.743a1.404 1.404 0 0 0-.307-.538 1.283 1.283 0 0 0-.496-.33 1.936 1.936 0 0 0-.681-.11c-.257 0-.487.036-.682.11a1.254 1.254 0 0 0-.493.33 1.385 1.385 0 0 0-.297.538 2.458 2.458 0 0 0-.102.743v.208c0 .281.034.526.102.737.068.211.167.392.297.535.134.147.295.254.493.33.195.074.425.11.682.11ZM155.079 40.676c-.496 0-.921-.077-1.274-.23a1.728 1.728 0 0 1-.815-.697c-.189-.312-.282-.697-.282-1.162v-3.26h1.224v3.23c0 .36.099.645.294.843.196.202.478.303.846.303.369 0 .657-.1.856-.303.198-.201.297-.483.297-.844v-3.23h1.233v3.26c0 .466-.096.854-.288 1.163a1.75 1.75 0 0 1-.818.697c-.353.153-.778.23-1.273.23ZM161.893 40.676c-.335 0-.651-.03-.946-.089a2.391 2.391 0 0 1-.777-.287 1.433 1.433 0 0 1-.53-.523c-.13-.218-.195-.484-.195-.799v-.07c0-.024 0-.046.006-.061h1.342s0 .033-.004.058c0 .024-.003.043-.003.058 0 .162.044.294.127.395.087.1.205.17.36.214.155.042.334.064.542.064.115 0 .22-.006.319-.015a1.089 1.089 0 0 0 .468-.15.403.403 0 0 0 .133-.138.404.404 0 0 0 .044-.186.368.368 0 0 0-.137-.29 1.084 1.084 0 0 0-.365-.194 7.269 7.269 0 0 0-.515-.146c-.192-.046-.39-.095-.598-.147a4.718 4.718 0 0 1-.598-.193 2.151 2.151 0 0 1-.514-.29 1.311 1.311 0 0 1-.366-.44 1.392 1.392 0 0 1-.136-.64c0-.275.059-.514.18-.716a1.37 1.37 0 0 1 .492-.492c.211-.128.45-.22.725-.278a4.225 4.225 0 0 1 1.733.003c.266.06.502.156.709.287.208.132.369.294.484.49.117.195.176.43.182.706v.092h-1.332v-.055a.51.51 0 0 0-.096-.31.65.65 0 0 0-.291-.213 1.23 1.23 0 0 0-.481-.08c-.192 0-.353.019-.483.055a.73.73 0 0 0-.304.153.317.317 0 0 0-.105.239c0 .113.046.205.136.275.09.07.214.131.369.183.155.052.329.098.521.141.192.043.387.089.591.138.205.049.403.11.592.183.192.074.366.169.521.285.155.116.279.257.369.425.09.168.136.373.136.611 0 .42-.099.756-.297 1.01a1.73 1.73 0 0 1-.822.56 3.73 3.73 0 0 1-1.18.177h-.006ZM166.187 40.584v-5.263h4.549v1.208h-2.937v.804h2.627v1.162h-2.627v.881h2.993v1.208h-4.605ZM103.767 40.578h-2.439v-5.242h2.439c1.159 0 2.104.933 2.104 2.077V38.5c0 1.144-.945 2.077-2.104 2.077Zm-2.017-.416h2.017c.926 0 1.682-.746 1.682-1.66v-1.09c0-.914-.756-1.66-1.682-1.66h-2.017v4.41Z"/></g><defs><clipPath id="a"><path fill="#fff" d="M0 0h210v42H0z"/></clipPath></defs></svg>